<svg xmlns="http://www.w3.org/2000/svg" width="700" height="900" viewBox="0 0 700 900">
  <rect width="700" height="900" fill="#f0e6d0"/>
  <g stroke="#0a0808" stroke-width="5" fill="none" stroke-linejoin="round" stroke-linecap="round">
    <path d="M350 350 C 290 320, 250 360, 270 410 C 240 410, 210 460, 250 500 C 230 540, 270 580, 320 570 C 320 610, 380 610, 380 570 C 430 580, 470 540, 450 500 C 490 460, 460 410, 430 410 C 450 360, 410 320, 350 350 Z" fill="#c43a2c"/>
    <path d="M350 360 C 320 360, 310 400, 340 410 C 360 415, 380 400, 370 380 C 365 365, 350 360, 350 360 Z" fill="#7a1a14"/>
    <path d="M310 580 L 290 660 L 280 740 L 320 760" />
    <path d="M270 670 C 230 670, 200 700, 220 730" fill="#0a0808" stroke="none"/>
    <path d="M270 670 C 230 670, 200 700, 220 730" fill="#1a4a1a"/>
    <path d="M390 580 L 410 670 L 460 720" />
    <path d="M420 690 C 470 690, 500 720, 480 750" fill="#1a4a1a"/>
  </g>
</svg>
